<mxfile host="app.diagrams.net" modified="2023-10-16T01:44:22.818Z" agent="Mozilla/5.0 (Windows NT 10.0; Win64; x64; rv:109.0) Gecko/20100101 Firefox/118.0" etag="yv8bIkDie4Bs-GtldXmG" version="22.0.4" type="github">
  <diagram id="C5RBs43oDa-KdzZeNtuy" name="Page-1">
    <mxGraphModel dx="1134" dy="603" grid="1" gridSize="10" guides="1" tooltips="1" connect="1" arrows="1" fold="1" page="1" pageScale="1" pageWidth="827" pageHeight="1169" math="0" shadow="0">
      <root>
        <object label="" id="WIyWlLk6GJQsqaUBKTNV-0">
          <mxCell />
        </object>
        <mxCell id="WIyWlLk6GJQsqaUBKTNV-1" parent="WIyWlLk6GJQsqaUBKTNV-0" />
        <mxCell id="vFvVe-yvwR2RvN1b6ZS0-31" value="" style="edgeStyle=orthogonalEdgeStyle;rounded=0;orthogonalLoop=1;jettySize=auto;html=1;" edge="1" parent="WIyWlLk6GJQsqaUBKTNV-1" source="vFvVe-yvwR2RvN1b6ZS0-10" target="vFvVe-yvwR2RvN1b6ZS0-25">
          <mxGeometry relative="1" as="geometry" />
        </mxCell>
        <mxCell id="vFvVe-yvwR2RvN1b6ZS0-10" value="star" style="ellipse;whiteSpace=wrap;html=1;" vertex="1" parent="WIyWlLk6GJQsqaUBKTNV-1">
          <mxGeometry x="325" y="60" width="100" height="40" as="geometry" />
        </mxCell>
        <mxCell id="vFvVe-yvwR2RvN1b6ZS0-18" value="end" style="rounded=1;whiteSpace=wrap;html=1;" vertex="1" parent="WIyWlLk6GJQsqaUBKTNV-1">
          <mxGeometry x="335" y="610" width="80" height="40" as="geometry" />
        </mxCell>
        <mxCell id="vFvVe-yvwR2RvN1b6ZS0-32" value="" style="edgeStyle=orthogonalEdgeStyle;rounded=0;orthogonalLoop=1;jettySize=auto;html=1;" edge="1" parent="WIyWlLk6GJQsqaUBKTNV-1" source="vFvVe-yvwR2RvN1b6ZS0-25" target="vFvVe-yvwR2RvN1b6ZS0-26">
          <mxGeometry relative="1" as="geometry" />
        </mxCell>
        <mxCell id="vFvVe-yvwR2RvN1b6ZS0-25" value="masukan bilangan bullat" style="shape=parallelogram;perimeter=parallelogramPerimeter;whiteSpace=wrap;html=1;fixedSize=1;" vertex="1" parent="WIyWlLk6GJQsqaUBKTNV-1">
          <mxGeometry x="297.5" y="140" width="155" height="40" as="geometry" />
        </mxCell>
        <mxCell id="vFvVe-yvwR2RvN1b6ZS0-33" value="" style="edgeStyle=orthogonalEdgeStyle;rounded=0;orthogonalLoop=1;jettySize=auto;html=1;" edge="1" parent="WIyWlLk6GJQsqaUBKTNV-1" source="vFvVe-yvwR2RvN1b6ZS0-26" target="vFvVe-yvwR2RvN1b6ZS0-27">
          <mxGeometry relative="1" as="geometry" />
        </mxCell>
        <mxCell id="vFvVe-yvwR2RvN1b6ZS0-26" value="bilangan dibagi 2 dengan operasi sisa bagi" style="rounded=0;whiteSpace=wrap;html=1;" vertex="1" parent="WIyWlLk6GJQsqaUBKTNV-1">
          <mxGeometry x="307.5" y="220" width="135" height="50" as="geometry" />
        </mxCell>
        <mxCell id="vFvVe-yvwR2RvN1b6ZS0-34" value="" style="edgeStyle=orthogonalEdgeStyle;rounded=0;orthogonalLoop=1;jettySize=auto;html=1;" edge="1" parent="WIyWlLk6GJQsqaUBKTNV-1" source="vFvVe-yvwR2RvN1b6ZS0-27" target="vFvVe-yvwR2RvN1b6ZS0-28">
          <mxGeometry relative="1" as="geometry" />
        </mxCell>
        <mxCell id="vFvVe-yvwR2RvN1b6ZS0-35" value="" style="edgeStyle=orthogonalEdgeStyle;rounded=0;orthogonalLoop=1;jettySize=auto;html=1;" edge="1" parent="WIyWlLk6GJQsqaUBKTNV-1" source="vFvVe-yvwR2RvN1b6ZS0-27" target="vFvVe-yvwR2RvN1b6ZS0-30">
          <mxGeometry relative="1" as="geometry" />
        </mxCell>
        <mxCell id="vFvVe-yvwR2RvN1b6ZS0-27" value="? sisa&lt;br&gt;bagi =0" style="rhombus;whiteSpace=wrap;html=1;" vertex="1" parent="WIyWlLk6GJQsqaUBKTNV-1">
          <mxGeometry x="315" y="310" width="120" height="110" as="geometry" />
        </mxCell>
        <mxCell id="vFvVe-yvwR2RvN1b6ZS0-28" value="genab" style="shape=parallelogram;perimeter=parallelogramPerimeter;whiteSpace=wrap;html=1;fixedSize=1;" vertex="1" parent="WIyWlLk6GJQsqaUBKTNV-1">
          <mxGeometry x="500" y="340" width="120" height="50" as="geometry" />
        </mxCell>
        <mxCell id="vFvVe-yvwR2RvN1b6ZS0-53" value="" style="edgeStyle=orthogonalEdgeStyle;rounded=0;orthogonalLoop=1;jettySize=auto;html=1;" edge="1" parent="WIyWlLk6GJQsqaUBKTNV-1" source="vFvVe-yvwR2RvN1b6ZS0-30" target="vFvVe-yvwR2RvN1b6ZS0-18">
          <mxGeometry relative="1" as="geometry" />
        </mxCell>
        <mxCell id="vFvVe-yvwR2RvN1b6ZS0-30" value="ganjil" style="shape=parallelogram;perimeter=parallelogramPerimeter;whiteSpace=wrap;html=1;fixedSize=1;" vertex="1" parent="WIyWlLk6GJQsqaUBKTNV-1">
          <mxGeometry x="315" y="460" width="120" height="60" as="geometry" />
        </mxCell>
        <mxCell id="vFvVe-yvwR2RvN1b6ZS0-60" value="" style="endArrow=classic;html=1;rounded=0;exitX=1;exitY=0.5;exitDx=0;exitDy=0;" edge="1" parent="WIyWlLk6GJQsqaUBKTNV-1" source="vFvVe-yvwR2RvN1b6ZS0-28">
          <mxGeometry width="50" height="50" relative="1" as="geometry">
            <mxPoint x="670" y="360" as="sourcePoint" />
            <mxPoint x="370" y="560" as="targetPoint" />
            <Array as="points">
              <mxPoint x="670" y="365" />
              <mxPoint x="670" y="560" />
            </Array>
          </mxGeometry>
        </mxCell>
      </root>
    </mxGraphModel>
  </diagram>
</mxfile>
